<svg width="11" height="15" viewBox="0 0 11 15" fill="none" xmlns="http://www.w3.org/2000/svg">
<path d="M5.55225 0C2.54604 0 0 2.61899 0 5.7208C0 8.96934 2.95121 12.2915 4.93625 14.6264C4.94404 14.6358 5.26488 15 5.65996 15H5.69479C6.09033 15 6.40887 14.6358 6.41667 14.6264C8.27933 12.4363 11 8.82449 11 5.7208C11 2.61852 9.01404 0 5.55225 0ZM5.73604 13.9973C5.72 14.0137 5.69663 14.032 5.676 14.0475C5.65492 14.0325 5.632 14.0137 5.61504 13.9973L5.37533 13.7151C3.49342 11.5072 0.916208 8.48323 0.916208 5.72034C0.916208 3.12713 3.03921 0.936592 5.55179 0.936592C8.68175 0.936592 10.0829 3.33901 10.0829 5.72034C10.0829 7.81759 8.62033 10.603 5.73604 13.9973ZM5.51604 2.83837C3.99758 2.83837 2.76604 4.09747 2.76604 5.65096C2.76604 7.20444 3.99758 8.46355 5.51604 8.46355C7.0345 8.46355 8.26604 7.20397 8.26604 5.65096C8.26604 4.09794 7.03496 2.83837 5.51604 2.83837ZM5.51604 7.52602C4.50496 7.52602 3.66163 6.66443 3.66163 5.63033C3.66163 4.59624 4.48388 3.75527 5.49496 3.75527C6.5065 3.75527 7.32829 4.59624 7.32829 5.63033C7.32875 6.66443 6.52758 7.52602 5.51604 7.52602Z" fill="black"/>
</svg>
