<svg width="15" height="15" viewBox="0 0 15 15" fill="none" xmlns="http://www.w3.org/2000/svg">
<path d="M7.5 1V2.3" stroke="black" stroke-linecap="round"/>
<path d="M7.5 12.7002V14.0002" stroke="black" stroke-linecap="round"/>
<path d="M1 7.5H2.3" stroke="black" stroke-linecap="round"/>
<path d="M12.7 7.5H14" stroke="black" stroke-linecap="round"/>
<path d="M3.6001 11.4L3.82308 11.177" stroke="black" stroke-linecap="round"/>
<path d="M11.1768 3.82322L11.3999 3.6001" stroke="black" stroke-linecap="round"/>
<path d="M11.4 11.4L11.177 11.177" stroke="black" stroke-linecap="round"/>
<path d="M3.82322 3.82322L3.6001 3.6001" stroke="black" stroke-linecap="round"/>
<path d="M9.62245 9.20768C9.70487 10.0579 9.74601 10.4831 9.49706 10.6721C9.24811 10.8611 8.87391 10.6888 8.12543 10.3441L7.9318 10.255C7.71905 10.1571 7.61271 10.1081 7.5 10.1081C7.38729 10.1081 7.28095 10.1571 7.06821 10.255L6.87457 10.3441C6.12612 10.6888 5.75188 10.8611 5.50292 10.6721C5.25397 10.4831 5.29516 10.0579 5.37756 9.20768L5.39887 8.98772C5.42228 8.74611 5.43399 8.62528 5.39916 8.51328C5.36432 8.40122 5.28689 8.31068 5.13203 8.12959L4.99103 7.96475C4.44605 7.32742 4.17357 7.00879 4.26866 6.70303C4.33755 6.48151 4.56629 6.37297 4.99103 6.26123M6.57479 5.35772C6.98644 4.61924 7.19229 4.25 7.5 4.25C7.80771 4.25 8.01357 4.61924 8.42521 5.35772L8.53175 5.54878C8.64868 5.75863 8.70718 5.86355 8.79838 5.93278C8.88957 6.00202 9.00319 6.02772 9.23037 6.07911L9.43713 6.12591C10.2366 6.3068 10.6363 6.39721 10.7313 6.70303C10.8 6.92371 10.6771 7.15101 10.3987 7.5" stroke="black" stroke-linecap="round"/>
</svg>
