<svg width="13" height="14" viewBox="0 0 13 14" fill="none" xmlns="http://www.w3.org/2000/svg">
<path d="M9.65714 1.22037V0H8.97619V1.22037H4.02381V0H3.34286V1.22037H0V14H13V1.22037H9.65714ZM0.680952 2.01234H3.34286V3.25791H4.02381V2.01234H8.97619V3.25791H9.65714V2.01234H12.319V4.73566H0.680952V2.01234ZM12.319 13.208H0.680952V5.02366H12.319V13.208Z" fill="black"/>
<path d="M3.00244 7.96654C3.00244 8.12408 3.05625 8.27516 3.15203 8.38655C3.2478 8.49794 3.37771 8.56052 3.51316 8.56052C3.64861 8.56052 3.77851 8.49794 3.87429 8.38655C3.97006 8.27516 4.02387 8.12408 4.02387 7.96654C4.02387 7.80901 3.97006 7.65793 3.87429 7.54653C3.77851 7.43514 3.64861 7.37256 3.51316 7.37256C3.37771 7.37256 3.2478 7.43514 3.15203 7.54653C3.05625 7.65793 3.00244 7.80901 3.00244 7.96654Z" fill="black"/>
<path d="M5.9585 7.96654C5.9585 8.04454 5.97171 8.12178 5.99737 8.19385C6.02304 8.26591 6.06066 8.33139 6.10808 8.38655C6.1555 8.44171 6.21181 8.48546 6.27377 8.51531C6.33573 8.54516 6.40214 8.56052 6.46921 8.56052C6.53628 8.56052 6.60269 8.54516 6.66465 8.51531C6.72661 8.48546 6.78292 8.44171 6.83034 8.38655C6.87776 8.33139 6.91538 8.26591 6.94105 8.19385C6.96671 8.12178 6.97992 8.04454 6.97992 7.96654C6.97992 7.88854 6.96671 7.8113 6.94105 7.73923C6.91538 7.66717 6.87776 7.60169 6.83034 7.54653C6.78292 7.49138 6.72661 7.44762 6.66465 7.41777C6.60269 7.38792 6.53628 7.37256 6.46921 7.37256C6.40214 7.37256 6.33573 7.38792 6.27377 7.41777C6.21181 7.44762 6.1555 7.49138 6.10808 7.54653C6.06066 7.60169 6.02304 7.66717 5.99737 7.73923C5.97171 7.8113 5.9585 7.88854 5.9585 7.96654Z" fill="black"/>
<path d="M8.91602 7.96654C8.91602 8.12408 8.96982 8.27516 9.0656 8.38655C9.16138 8.49794 9.29128 8.56052 9.42673 8.56052C9.56218 8.56052 9.69208 8.49794 9.78786 8.38655C9.88364 8.27516 9.93744 8.12408 9.93744 7.96654C9.93744 7.80901 9.88364 7.65793 9.78786 7.54653C9.69208 7.43514 9.56218 7.37256 9.42673 7.37256C9.29128 7.37256 9.16138 7.43514 9.0656 7.54653C8.96982 7.65793 8.91602 7.80901 8.91602 7.96654Z" fill="black"/>
<path d="M3.00244 10.2651C3.00244 10.4227 3.05625 10.5737 3.15203 10.6851C3.2478 10.7965 3.37771 10.8591 3.51316 10.8591C3.64861 10.8591 3.77851 10.7965 3.87429 10.6851C3.97006 10.5737 4.02387 10.4227 4.02387 10.2651C4.02387 10.1076 3.97006 9.95651 3.87429 9.84512C3.77851 9.73372 3.64861 9.67114 3.51316 9.67114C3.37771 9.67114 3.2478 9.73372 3.15203 9.84512C3.05625 9.95651 3.00244 10.1076 3.00244 10.2651Z" fill="black"/>
<path d="M5.9585 10.2651C5.9585 10.3431 5.97171 10.4204 5.99737 10.4924C6.02304 10.5645 6.06066 10.63 6.10808 10.6851C6.1555 10.7403 6.21181 10.784 6.27377 10.8139C6.33573 10.8437 6.40214 10.8591 6.46921 10.8591C6.53628 10.8591 6.60269 10.8437 6.66465 10.8139C6.72661 10.784 6.78292 10.7403 6.83034 10.6851C6.87776 10.63 6.91538 10.5645 6.94105 10.4924C6.96671 10.4204 6.97992 10.3431 6.97992 10.2651C6.97992 10.1871 6.96671 10.1099 6.94105 10.0378C6.91538 9.96575 6.87776 9.90027 6.83034 9.84512C6.78292 9.78996 6.72661 9.74621 6.66465 9.71636C6.60269 9.68651 6.53628 9.67114 6.46921 9.67114C6.40214 9.67114 6.33573 9.68651 6.27377 9.71636C6.21181 9.74621 6.1555 9.78996 6.10808 9.84512C6.06066 9.90027 6.02304 9.96575 5.99737 10.0378C5.97171 10.1099 5.9585 10.1871 5.9585 10.2651Z" fill="black"/>
<path d="M8.91602 10.2651C8.91602 10.4227 8.96982 10.5737 9.0656 10.6851C9.16138 10.7965 9.29128 10.8591 9.42673 10.8591C9.56218 10.8591 9.69208 10.7965 9.78786 10.6851C9.88364 10.5737 9.93744 10.4227 9.93744 10.2651C9.93744 10.1076 9.88364 9.95651 9.78786 9.84512C9.69208 9.73372 9.56218 9.67114 9.42673 9.67114C9.29128 9.67114 9.16138 9.73372 9.0656 9.84512C8.96982 9.95651 8.91602 10.1076 8.91602 10.2651Z" fill="black"/>
</svg>
